<svg xmlns="http://www.w3.org/2000/svg" viewBox="0 0 620 150" role="img" aria-labelledby="title desc">
<title id="title">DinPuls</title>
<desc id="desc">Kartnål med kompass och ordmärket DinPuls</desc>
<g fill="none" fill-rule="evenodd">
  <g transform="translate(8 7)">
    <path d="M67 0C30 0 0 29 0 65c0 48 67 78 67 78s67-30 67-78C134 29 104 0 67 0Z" fill="#fff"/>
    <circle cx="67" cy="61" r="43" fill="#0B5ED7"/>
    <circle cx="67" cy="61" r="34" stroke="#fff" stroke-width="3"/>
    <path d="m67 23 10 28 28 10-28 10-10 28-10-28-28-10 28-10 10-28Z" fill="#fff"/>
    <path d="m67 34 6 21 21 6-21 6-6 21-6-21-21-6 21-6 6-21Z" fill="#0B5ED7"/>
    <circle cx="67" cy="61" r="5" fill="#fff"/>
  </g>
  <g transform="translate(165 30)" fill="#fff">
    <text x="0" y="52" font-family="Inter, Arial, sans-serif" font-size="58" font-weight="800" letter-spacing="-2">DinPuls.se</text>
    <text x="2" y="88" font-family="Inter, Arial, sans-serif" font-size="18" font-weight="500" opacity=".82">Åmåls kommun – allt du behöver veta där du bor</text>
  </g>
</g>
</svg>